<mxfile host="app.diagrams.net" modified="2020-08-31T15:29:49.249Z" agent="5.0 (Windows NT 10.0; Win64; x64) AppleWebKit/537.36 (KHTML, like Gecko) Chrome/85.0.4183.83 Safari/537.36 Edg/85.0.564.41" etag="LWWx15_AvBwnPrqIqaMy" version="13.6.6" type="github">
  <diagram id="Lue05HmIanWhCoe9alP6" name="Page-1">
    <mxGraphModel dx="2545" dy="962" grid="1" gridSize="10" guides="1" tooltips="1" connect="1" arrows="1" fold="1" page="1" pageScale="1" pageWidth="827" pageHeight="1169" math="0" shadow="0">
      <root>
        <mxCell id="0" />
        <mxCell id="1" parent="0" />
        <mxCell id="NWO9Jg_MubUmfiNu8nZK-82" value="" style="rounded=0;whiteSpace=wrap;html=1;" vertex="1" parent="1">
          <mxGeometry x="-40" y="30" width="1360" height="940" as="geometry" />
        </mxCell>
        <mxCell id="NWO9Jg_MubUmfiNu8nZK-3" value="" style="rounded=0;whiteSpace=wrap;html=1;" vertex="1" parent="1">
          <mxGeometry x="100" y="370" width="1090" height="530" as="geometry" />
        </mxCell>
        <mxCell id="NWO9Jg_MubUmfiNu8nZK-12" value="" style="rounded=0;whiteSpace=wrap;html=1;dashed=1;" vertex="1" parent="1">
          <mxGeometry x="780" y="425" width="240" height="215" as="geometry" />
        </mxCell>
        <mxCell id="NWO9Jg_MubUmfiNu8nZK-4" value="" style="rounded=0;whiteSpace=wrap;html=1;dashed=1;" vertex="1" parent="1">
          <mxGeometry x="330" y="430" width="240" height="210" as="geometry" />
        </mxCell>
        <mxCell id="NWO9Jg_MubUmfiNu8nZK-1" value="张三" style="shape=umlActor;verticalLabelPosition=bottom;verticalAlign=top;html=1;" vertex="1" parent="1">
          <mxGeometry x="10" y="470" width="30" height="60" as="geometry" />
        </mxCell>
        <mxCell id="NWO9Jg_MubUmfiNu8nZK-47" style="edgeStyle=orthogonalEdgeStyle;rounded=0;orthogonalLoop=1;jettySize=auto;html=1;" edge="1" parent="1" source="NWO9Jg_MubUmfiNu8nZK-2" target="NWO9Jg_MubUmfiNu8nZK-8">
          <mxGeometry relative="1" as="geometry" />
        </mxCell>
        <mxCell id="NWO9Jg_MubUmfiNu8nZK-62" style="edgeStyle=orthogonalEdgeStyle;rounded=0;orthogonalLoop=1;jettySize=auto;html=1;entryX=0;entryY=0.5;entryDx=0;entryDy=0;entryPerimeter=0;" edge="1" parent="1" source="NWO9Jg_MubUmfiNu8nZK-2" target="NWO9Jg_MubUmfiNu8nZK-20">
          <mxGeometry relative="1" as="geometry" />
        </mxCell>
        <mxCell id="NWO9Jg_MubUmfiNu8nZK-67" value="入队" style="edgeLabel;html=1;align=center;verticalAlign=middle;resizable=0;points=[];" vertex="1" connectable="0" parent="NWO9Jg_MubUmfiNu8nZK-62">
          <mxGeometry x="0.1367" y="1" relative="1" as="geometry">
            <mxPoint x="-1.03" y="8.29" as="offset" />
          </mxGeometry>
        </mxCell>
        <mxCell id="NWO9Jg_MubUmfiNu8nZK-2" value="App V1" style="rounded=1;whiteSpace=wrap;html=1;fillColor=#dae8fc;strokeColor=#6c8ebf;" vertex="1" parent="1">
          <mxGeometry x="360" y="475" width="90" height="55" as="geometry" />
        </mxCell>
        <mxCell id="NWO9Jg_MubUmfiNu8nZK-5" value="云服务器" style="text;html=1;strokeColor=none;fillColor=none;align=center;verticalAlign=middle;whiteSpace=wrap;rounded=0;" vertex="1" parent="1">
          <mxGeometry x="150" y="390" width="70" height="20" as="geometry" />
        </mxCell>
        <mxCell id="NWO9Jg_MubUmfiNu8nZK-6" value="IIS" style="text;html=1;strokeColor=none;fillColor=none;align=center;verticalAlign=middle;whiteSpace=wrap;rounded=0;" vertex="1" parent="1">
          <mxGeometry x="375" y="440" width="70" height="20" as="geometry" />
        </mxCell>
        <mxCell id="NWO9Jg_MubUmfiNu8nZK-46" style="edgeStyle=orthogonalEdgeStyle;rounded=0;orthogonalLoop=1;jettySize=auto;html=1;" edge="1" parent="1" source="NWO9Jg_MubUmfiNu8nZK-7" target="NWO9Jg_MubUmfiNu8nZK-9">
          <mxGeometry relative="1" as="geometry" />
        </mxCell>
        <mxCell id="NWO9Jg_MubUmfiNu8nZK-7" value="App V2" style="rounded=1;whiteSpace=wrap;html=1;fillColor=#0050ef;strokeColor=#001DBC;fontColor=#ffffff;" vertex="1" parent="1">
          <mxGeometry x="470" y="580" width="90" height="50" as="geometry" />
        </mxCell>
        <mxCell id="NWO9Jg_MubUmfiNu8nZK-50" style="edgeStyle=orthogonalEdgeStyle;rounded=0;orthogonalLoop=1;jettySize=auto;html=1;entryX=0;entryY=0.5;entryDx=0;entryDy=0;exitX=0.5;exitY=1;exitDx=0;exitDy=0;" edge="1" parent="1" source="NWO9Jg_MubUmfiNu8nZK-8" target="NWO9Jg_MubUmfiNu8nZK-18">
          <mxGeometry relative="1" as="geometry" />
        </mxCell>
        <mxCell id="NWO9Jg_MubUmfiNu8nZK-51" value="读取" style="edgeLabel;html=1;align=center;verticalAlign=middle;resizable=0;points=[];" vertex="1" connectable="0" parent="NWO9Jg_MubUmfiNu8nZK-50">
          <mxGeometry x="0.1351" y="3" relative="1" as="geometry">
            <mxPoint as="offset" />
          </mxGeometry>
        </mxCell>
        <mxCell id="NWO9Jg_MubUmfiNu8nZK-8" value="DB V1" style="rounded=1;whiteSpace=wrap;html=1;fillColor=#dae8fc;strokeColor=#6c8ebf;" vertex="1" parent="1">
          <mxGeometry x="800" y="475" width="90" height="55" as="geometry" />
        </mxCell>
        <mxCell id="NWO9Jg_MubUmfiNu8nZK-9" value="DB V2" style="rounded=1;whiteSpace=wrap;html=1;fillColor=#0050ef;strokeColor=#001DBC;fontColor=#ffffff;" vertex="1" parent="1">
          <mxGeometry x="920" y="580" width="90" height="50" as="geometry" />
        </mxCell>
        <mxCell id="NWO9Jg_MubUmfiNu8nZK-13" value="数据库" style="text;html=1;strokeColor=none;fillColor=none;align=center;verticalAlign=middle;whiteSpace=wrap;rounded=0;" vertex="1" parent="1">
          <mxGeometry x="820" y="440" width="70" height="20" as="geometry" />
        </mxCell>
        <mxCell id="NWO9Jg_MubUmfiNu8nZK-37" style="edgeStyle=orthogonalEdgeStyle;rounded=0;orthogonalLoop=1;jettySize=auto;html=1;" edge="1" parent="1" source="NWO9Jg_MubUmfiNu8nZK-18" target="NWO9Jg_MubUmfiNu8nZK-9">
          <mxGeometry relative="1" as="geometry" />
        </mxCell>
        <mxCell id="NWO9Jg_MubUmfiNu8nZK-53" value="写入" style="edgeLabel;html=1;align=center;verticalAlign=middle;resizable=0;points=[];" vertex="1" connectable="0" parent="NWO9Jg_MubUmfiNu8nZK-37">
          <mxGeometry x="-0.1111" y="-1" relative="1" as="geometry">
            <mxPoint as="offset" />
          </mxGeometry>
        </mxCell>
        <mxCell id="NWO9Jg_MubUmfiNu8nZK-18" value="数据迁移程序" style="rounded=1;whiteSpace=wrap;html=1;fillColor=#f8cecc;strokeColor=#b85450;" vertex="1" parent="1">
          <mxGeometry x="900" y="810" width="130" height="30" as="geometry" />
        </mxCell>
        <mxCell id="NWO9Jg_MubUmfiNu8nZK-31" style="edgeStyle=orthogonalEdgeStyle;rounded=0;orthogonalLoop=1;jettySize=auto;html=1;" edge="1" parent="1" source="NWO9Jg_MubUmfiNu8nZK-20" target="NWO9Jg_MubUmfiNu8nZK-18">
          <mxGeometry relative="1" as="geometry" />
        </mxCell>
        <mxCell id="NWO9Jg_MubUmfiNu8nZK-54" value="消费" style="edgeLabel;html=1;align=center;verticalAlign=middle;resizable=0;points=[];" vertex="1" connectable="0" parent="NWO9Jg_MubUmfiNu8nZK-31">
          <mxGeometry x="-0.26" y="-2" relative="1" as="geometry">
            <mxPoint as="offset" />
          </mxGeometry>
        </mxCell>
        <mxCell id="NWO9Jg_MubUmfiNu8nZK-20" value="迁移队列" style="strokeWidth=2;html=1;shape=mxgraph.flowchart.direct_data;whiteSpace=wrap;fillColor=#d5e8d4;strokeColor=#82b366;" vertex="1" parent="1">
          <mxGeometry x="430" y="795" width="190" height="60" as="geometry" />
        </mxCell>
        <mxCell id="NWO9Jg_MubUmfiNu8nZK-33" value="1" style="ellipse;whiteSpace=wrap;html=1;aspect=fixed;fillColor=#d80073;strokeColor=#A50040;fontColor=#ffffff;" vertex="1" parent="1">
          <mxGeometry x="250" y="510" width="30" height="30" as="geometry" />
        </mxCell>
        <mxCell id="NWO9Jg_MubUmfiNu8nZK-34" value="2" style="ellipse;whiteSpace=wrap;html=1;aspect=fixed;fillColor=#d80073;strokeColor=#A50040;fontColor=#ffffff;" vertex="1" parent="1">
          <mxGeometry x="330" y="800" width="30" height="30" as="geometry" />
        </mxCell>
        <mxCell id="NWO9Jg_MubUmfiNu8nZK-35" value="3" style="ellipse;whiteSpace=wrap;html=1;aspect=fixed;fillColor=#d80073;strokeColor=#A50040;fontColor=#ffffff;" vertex="1" parent="1">
          <mxGeometry x="780" y="790" width="30" height="30" as="geometry" />
        </mxCell>
        <mxCell id="NWO9Jg_MubUmfiNu8nZK-36" value="4" style="ellipse;whiteSpace=wrap;html=1;aspect=fixed;fillColor=#d80073;strokeColor=#A50040;fontColor=#ffffff;" vertex="1" parent="1">
          <mxGeometry x="860" y="665" width="30" height="30" as="geometry" />
        </mxCell>
        <mxCell id="NWO9Jg_MubUmfiNu8nZK-38" value="将旧数据写入新数据库" style="text;html=1;strokeColor=none;fillColor=none;align=center;verticalAlign=middle;whiteSpace=wrap;rounded=0;" vertex="1" parent="1">
          <mxGeometry x="960" y="670" width="160" height="20" as="geometry" />
        </mxCell>
        <mxCell id="NWO9Jg_MubUmfiNu8nZK-39" value="&#xa;&#xa;&lt;span style=&quot;color: rgb(0, 0, 0); font-family: helvetica; font-size: 11px; font-style: normal; font-weight: 400; letter-spacing: normal; text-align: center; text-indent: 0px; text-transform: none; word-spacing: 0px; background-color: rgb(255, 255, 255); display: inline; float: none;&quot;&gt;通过 用户标识 读取用户旧数据&lt;/span&gt;&#xa;&#xa;" style="text;html=1;strokeColor=none;fillColor=none;align=center;verticalAlign=middle;whiteSpace=wrap;rounded=0;" vertex="1" parent="1">
          <mxGeometry x="670" y="670" width="180" height="20" as="geometry" />
        </mxCell>
        <mxCell id="NWO9Jg_MubUmfiNu8nZK-40" value="5" style="ellipse;whiteSpace=wrap;html=1;aspect=fixed;fillColor=#d80073;strokeColor=#A50040;fontColor=#ffffff;" vertex="1" parent="1">
          <mxGeometry x="1110" y="665" width="30" height="30" as="geometry" />
        </mxCell>
        <mxCell id="NWO9Jg_MubUmfiNu8nZK-41" value="6" style="ellipse;whiteSpace=wrap;html=1;aspect=fixed;fillColor=#d80073;strokeColor=#A50040;fontColor=#ffffff;" vertex="1" parent="1">
          <mxGeometry x="280" y="615" width="30" height="30" as="geometry" />
        </mxCell>
        <mxCell id="NWO9Jg_MubUmfiNu8nZK-45" value="&lt;span style=&quot;font-size: 11px ; background-color: rgb(255 , 255 , 255)&quot;&gt;读取待迁移用户标识&lt;/span&gt;" style="text;html=1;strokeColor=none;fillColor=none;align=center;verticalAlign=middle;whiteSpace=wrap;rounded=0;" vertex="1" parent="1">
          <mxGeometry x="630" y="795" width="140" height="20" as="geometry" />
        </mxCell>
        <mxCell id="NWO9Jg_MubUmfiNu8nZK-49" value="&#xa;&#xa;&lt;span style=&quot;color: rgb(0, 0, 0); font-family: helvetica; font-size: 11px; font-style: normal; font-weight: 400; letter-spacing: normal; text-align: center; text-indent: 0px; text-transform: none; word-spacing: 0px; background-color: rgb(255, 255, 255); display: inline; float: none;&quot;&gt;将已注销的用户加入迁移队列&lt;/span&gt;&#xa;&#xa;" style="text;html=1;strokeColor=none;fillColor=none;align=center;verticalAlign=middle;whiteSpace=wrap;rounded=0;" vertex="1" parent="1">
          <mxGeometry x="140" y="810" width="180" height="20" as="geometry" />
        </mxCell>
        <mxCell id="NWO9Jg_MubUmfiNu8nZK-58" style="edgeStyle=orthogonalEdgeStyle;rounded=0;orthogonalLoop=1;jettySize=auto;html=1;entryX=0;entryY=0.5;entryDx=0;entryDy=0;" edge="1" parent="1" source="NWO9Jg_MubUmfiNu8nZK-56" target="NWO9Jg_MubUmfiNu8nZK-7">
          <mxGeometry relative="1" as="geometry">
            <mxPoint x="40" y="590" as="sourcePoint" />
          </mxGeometry>
        </mxCell>
        <mxCell id="NWO9Jg_MubUmfiNu8nZK-56" value="张三" style="shape=umlActor;verticalLabelPosition=bottom;verticalAlign=top;html=1;" vertex="1" parent="1">
          <mxGeometry x="10" y="575" width="30" height="60" as="geometry" />
        </mxCell>
        <mxCell id="NWO9Jg_MubUmfiNu8nZK-59" value="下次登录，进入新版应用" style="text;html=1;strokeColor=none;fillColor=none;align=center;verticalAlign=middle;whiteSpace=wrap;rounded=0;" vertex="1" parent="1">
          <mxGeometry x="120" y="625" width="150" height="20" as="geometry" />
        </mxCell>
        <mxCell id="NWO9Jg_MubUmfiNu8nZK-61" value="用户注销" style="text;html=1;strokeColor=none;fillColor=none;align=center;verticalAlign=middle;whiteSpace=wrap;rounded=0;" vertex="1" parent="1">
          <mxGeometry x="165" y="515" width="60" height="20" as="geometry" />
        </mxCell>
        <mxCell id="NWO9Jg_MubUmfiNu8nZK-65" value="" style="endArrow=classic;startArrow=classic;html=1;" edge="1" parent="1" source="NWO9Jg_MubUmfiNu8nZK-1" target="NWO9Jg_MubUmfiNu8nZK-2">
          <mxGeometry width="50" height="50" relative="1" as="geometry">
            <mxPoint x="580" y="620" as="sourcePoint" />
            <mxPoint x="630" y="570" as="targetPoint" />
          </mxGeometry>
        </mxCell>
        <mxCell id="NWO9Jg_MubUmfiNu8nZK-66" value="正常登录，访问旧版系统" style="text;html=1;strokeColor=none;fillColor=none;align=center;verticalAlign=middle;whiteSpace=wrap;rounded=0;" vertex="1" parent="1">
          <mxGeometry x="150" y="470" width="150" height="20" as="geometry" />
        </mxCell>
        <mxCell id="NWO9Jg_MubUmfiNu8nZK-69" value="读、写" style="text;html=1;strokeColor=none;fillColor=none;align=center;verticalAlign=middle;whiteSpace=wrap;rounded=0;" vertex="1" parent="1">
          <mxGeometry x="620" y="475" width="40" height="20" as="geometry" />
        </mxCell>
        <mxCell id="NWO9Jg_MubUmfiNu8nZK-70" value="读、写" style="text;html=1;strokeColor=none;fillColor=none;align=center;verticalAlign=middle;whiteSpace=wrap;rounded=0;" vertex="1" parent="1">
          <mxGeometry x="625" y="560" width="40" height="20" as="geometry" />
        </mxCell>
        <mxCell id="NWO9Jg_MubUmfiNu8nZK-71" value="涉及的状态：&lt;br&gt;&lt;br&gt;1. 用户在线状态：离线、在线&lt;br&gt;2. 用户的迁移状态：正常、待迁移、迁移中、迁移完成、失败回滚&lt;br&gt;3. 用户系统版本：v1、v2...&lt;br&gt;4. 其他..." style="shape=note;whiteSpace=wrap;html=1;size=14;verticalAlign=top;align=left;spacingTop=-6;" vertex="1" parent="1">
          <mxGeometry x="100" y="150" width="410" height="100" as="geometry" />
        </mxCell>
        <mxCell id="NWO9Jg_MubUmfiNu8nZK-72" value="迁移的触发时机：&lt;br&gt;&lt;br&gt;1. 用户正常注销&lt;br&gt;2. 用户登录&lt;br&gt;3. 设置计划任务，筛选离线状态的用户，进行迁移&lt;br&gt;4. 其他。。。" style="shape=note;whiteSpace=wrap;html=1;size=14;verticalAlign=top;align=left;spacingTop=-6;" vertex="1" parent="1">
          <mxGeometry x="560" y="150" width="410" height="100" as="geometry" />
        </mxCell>
        <mxCell id="NWO9Jg_MubUmfiNu8nZK-73" value="离线" style="rounded=1;whiteSpace=wrap;html=1;fillColor=#eeeeee;strokeColor=#36393d;" vertex="1" parent="1">
          <mxGeometry x="100" y="280" width="45" height="20" as="geometry" />
        </mxCell>
        <mxCell id="NWO9Jg_MubUmfiNu8nZK-74" value="在线" style="rounded=1;whiteSpace=wrap;html=1;fillColor=#cdeb8b;strokeColor=#36393d;" vertex="1" parent="1">
          <mxGeometry x="160" y="280" width="50" height="20" as="geometry" />
        </mxCell>
        <mxCell id="NWO9Jg_MubUmfiNu8nZK-75" value="正常" style="rounded=1;whiteSpace=wrap;html=1;fillColor=#d5e8d4;strokeColor=#82b366;" vertex="1" parent="1">
          <mxGeometry x="100" y="310" width="45" height="20" as="geometry" />
        </mxCell>
        <mxCell id="NWO9Jg_MubUmfiNu8nZK-76" value="待迁移" style="rounded=1;whiteSpace=wrap;html=1;fillColor=#fff2cc;strokeColor=#d6b656;" vertex="1" parent="1">
          <mxGeometry x="160" y="310" width="50" height="20" as="geometry" />
        </mxCell>
        <mxCell id="NWO9Jg_MubUmfiNu8nZK-77" value="迁移中" style="rounded=1;whiteSpace=wrap;html=1;fillColor=#1ba1e2;strokeColor=#006EAF;fontColor=#ffffff;" vertex="1" parent="1">
          <mxGeometry x="220" y="310" width="50" height="20" as="geometry" />
        </mxCell>
        <mxCell id="NWO9Jg_MubUmfiNu8nZK-78" value="迁移完成" style="rounded=1;whiteSpace=wrap;html=1;fillColor=#008a00;strokeColor=#005700;fontColor=#ffffff;" vertex="1" parent="1">
          <mxGeometry x="280" y="310" width="60" height="20" as="geometry" />
        </mxCell>
        <mxCell id="NWO9Jg_MubUmfiNu8nZK-79" value="失败回滚" style="rounded=1;whiteSpace=wrap;html=1;fillColor=#e51400;strokeColor=#B20000;fontColor=#ffffff;" vertex="1" parent="1">
          <mxGeometry x="354" y="310" width="60" height="20" as="geometry" />
        </mxCell>
        <mxCell id="NWO9Jg_MubUmfiNu8nZK-80" value="V1" style="rounded=1;whiteSpace=wrap;html=1;fillColor=#dae8fc;strokeColor=#6c8ebf;" vertex="1" parent="1">
          <mxGeometry x="100" y="340" width="45" height="20" as="geometry" />
        </mxCell>
        <mxCell id="NWO9Jg_MubUmfiNu8nZK-81" value="V2" style="rounded=1;whiteSpace=wrap;html=1;fillColor=#0050ef;strokeColor=#001DBC;fontColor=#ffffff;" vertex="1" parent="1">
          <mxGeometry x="160" y="340" width="45" height="20" as="geometry" />
        </mxCell>
        <mxCell id="NWO9Jg_MubUmfiNu8nZK-83" value="&lt;font style=&quot;font-size: 24px&quot;&gt;云创业版横向扩展 &amp;amp; 7x24连续服务场景下的应用及数据库无中断迁移方案&lt;/font&gt;" style="rounded=1;whiteSpace=wrap;html=1;dashed=1;" vertex="1" parent="1">
          <mxGeometry x="220" y="50" width="800" height="40" as="geometry" />
        </mxCell>
      </root>
    </mxGraphModel>
  </diagram>
</mxfile>
